<?xml version="1.0" standalone="no"?>
<!DOCTYPE svg PUBLIC "-//W3C//DTD SVG 20010904//EN"
 "http://www.w3.org/TR/2001/REC-SVG-20010904/DTD/svg10.dtd">
<svg version="1.0" xmlns="http://www.w3.org/2000/svg"
 width="180.000000pt" height="180.000000pt" viewBox="0 0 180.000000 180.000000"
 preserveAspectRatio="xMidYMid meet">
<metadata>
Created by potrace 1.11, written by Peter Selinger 2001-2013
</metadata>
<g transform="translate(0.000000,180.000000) scale(0.100000,-0.100000)"
fill="#000000" stroke="none">
<path d="M102 1779 c-26 -13 -55 -39 -70 -62 l-27 -41 -3 -754 c-1 -490 1
-767 8 -791 13 -50 43 -87 90 -111 37 -19 65 -20 795 -20 717 0 759 1 798 18
49 22 71 44 92 95 13 32 15 132 15 790 0 747 -1 753 -22 796 -12 25 -38 54
-61 69 l-41 27 -765 3 -766 2 -43 -21z"/>
</g>
</svg>
